<?xml version="1.0" encoding="utf-8"?><!-- Uploaded to: SVG Repo, www.svgrepo.com, Generator: SVG Repo Mixer Tools -->
<svg version="1.1" id="designs" xmlns="http://www.w3.org/2000/svg" xmlns:xlink="http://www.w3.org/1999/xlink" 
	 width="800px" height="800px" viewBox="0 0 32 32" xml:space="preserve">
<style type="text/css">
	.sketchy_een{fill:#111918;}
</style>
<path class="sketchy_een" d="M28.985,26.775c-0.022-0.372-0.063-0.74-0.09-1.11c-0.057-0.828-0.025-1.652,0.018-2.48
	c0.023-0.448-0.392-0.822-0.822-0.822c-0.225,0-0.419,0.091-0.564,0.234c-0.087-0.032-0.177-0.054-0.274-0.047
	c-0.087,0.007-0.173,0.016-0.259,0.026c-0.022-0.26-0.032-0.521-0.042-0.779c-0.014-0.341-0.027-0.679-0.037-1.018
	c-0.025-0.767-0.067-1.537-0.1-2.304c-0.033-0.765-0.008-1.535,0-2.302c0.004-0.368,0.002-0.734,0.02-1.102
	c0.018-0.376,0.045-0.752,0.057-1.13c0.023-0.675,0.023-1.354,0.039-2.03c0.018-0.671,0.027-1.342,0.029-2.015
	c0.111,0.014,0.221,0.029,0.333,0.039c0.182,0.018,0.368,0.022,0.552,0.027c0.082,0.002,0.158-0.022,0.233-0.045
	c0.008,0,0.015,0.005,0.024,0.005c0.419,0,0.775-0.352,0.773-0.773c-0.004-0.736,0.008-1.474,0.023-2.212
	c0.018-0.818,0.094-1.633,0.1-2.451c0.001-0.229-0.1-0.437-0.256-0.587c-0.091-0.258-0.285-0.479-0.563-0.549
	c-0.221-0.055-0.458-0.045-0.685-0.061c-0.198-0.012-0.397-0.023-0.595-0.033c-0.311-0.014-0.619-0.041-0.93-0.043
	c-0.376-0.003-0.751-0.005-1.127-0.005c-0.639,0-1.277,0.006-1.916,0.025c-0.493,0.014-0.906,0.401-0.906,0.904
	c0,0.249,0.115,0.485,0.291,0.656c0.013,0.195,0.025,0.391,0.037,0.586c-0.308,0.019-0.617,0.016-0.924,0.021
	c-0.364,0.004-0.726,0.027-1.088,0.029c-0.679,0.002-1.357,0.008-2.034,0.004C17.514,5.428,16.727,5.43,15.94,5.42
	c-0.756-0.01-1.511-0.045-2.267-0.059c-0.685-0.012-1.37-0.004-2.055-0.022c-0.586-0.014-1.172-0.032-1.758-0.049
	c0-0.195-0.002-0.39-0.001-0.586C9.86,4.518,9.785,4.351,9.678,4.21c0-0.009,0.005-0.016,0.005-0.025
	c0-0.221-0.088-0.437-0.245-0.593C9.27,3.425,9.074,3.366,8.845,3.347C8.107,3.282,7.367,3.353,6.627,3.353
	C5.698,3.355,4.77,3.327,3.842,3.315c-0.003,0-0.007,0-0.01,0C3.376,3.315,3,3.706,3,4.157c0,0.246,0.115,0.465,0.288,0.62
	C3.303,5.138,3.322,5.499,3.33,5.86C3.337,6.246,3.335,6.63,3.331,7.015c-0.004,0.384-0.002,0.771,0,1.155
	c0.002,0.366-0.006,0.732,0.035,1.096C3.39,9.486,3.437,9.668,3.6,9.83c0.149,0.149,0.354,0.233,0.566,0.233
	c0.07,0,0.137-0.022,0.204-0.041c0.325-0.002,0.65-0.011,0.974-0.019c-0.009,0.771-0.004,1.542-0.029,2.313
	C5.289,13.057,5.265,13.8,5.2,14.538c-0.031,0.36-0.078,0.719-0.076,1.081c0.002,0.378,0.008,0.754,0.008,1.131
	c0.002,0.756-0.008,1.511-0.002,2.267c0.006,0.634,0.037,1.268,0.07,1.901c0.027,0.486,0.042,0.971,0.076,1.454
	c-0.219-0.003-0.439-0.008-0.658-0.009c-0.304-0.001-0.563,0.173-0.716,0.418c-0.228,0.146-0.392,0.39-0.388,0.674
	c0.006,0.444,0.029,0.889,0.027,1.331c-0.002,0.356-0.006,0.712-0.012,1.069c-0.008,0.343-0.008,0.685-0.012,1.028
	c0,0.149,0.006,0.298,0.018,0.446c0.018,0.235,0.039,0.454,0.159,0.662c0.005,0.01,0.015,0.016,0.021,0.025
	c0.125,0.3,0.422,0.518,0.764,0.515c0.918-0.01,1.834-0.018,2.752-0.008c0.274,0.004,0.544,0.025,0.818,0.023
	c0.253-0.002,0.515-0.006,0.765,0.02c-0.02-0.003-0.04-0.005-0.059-0.008c0.169,0.014,0.326-0.007,0.486-0.1
	c0.18-0.106,0.313-0.28,0.37-0.481c0.009-0.033,0.002-0.068,0.007-0.102c0.243-0.131,0.416-0.38,0.416-0.671
	c0-0.056,0.001-0.111,0.001-0.167c1.568-0.079,3.131-0.13,4.701-0.099c0.781,0.014,1.56,0.024,2.339,0.059
	c0.715,0.033,1.427,0.074,2.144,0.078c0.611,0.004,1.223,0.021,1.836,0.023c0.4,0,0.8-0.003,1.2-0.015
	c0.017,0.264,0.035,0.527,0.072,0.79c0.037,0.131,0.104,0.247,0.2,0.343c0.086,0.085,0.191,0.141,0.304,0.179
	c0.154,0.233,0.404,0.402,0.697,0.396c0.732-0.016,1.464-0.061,2.196-0.068c0.164,0,0.329,0.002,0.495,0.006
	c0.46,0.008,0.922,0.018,1.372-0.076c0.202-0.042,0.356-0.177,0.462-0.344c0.377,0.067,0.818-0.154,0.898-0.55
	C29.018,27.429,29.002,27.106,28.985,26.775z M25.865,4.93c0.168-0.002,0.339,0.025,0.507,0.035c0.145,0.008,0.29,0.01,0.433,0.023
	c0.184,0.016,0.364,0.029,0.549,0.031c-0.004,0.628-0.014,1.255-0.02,1.884c-0.005,0.465-0.003,0.93-0.002,1.395
	c-0.162-0.011-0.325-0.019-0.487-0.028c-0.368-0.021-0.74-0.004-1.108-0.002c-0.45,0.004-0.899-0.002-1.349-0.006
	c-0.123-0.002-0.247-0.001-0.37-0.003c-0.004-0.507,0.003-1.013-0.008-1.52c-0.01-0.578-0.028-1.157-0.048-1.736
	c0.216-0.008,0.431-0.017,0.646-0.025C25.027,4.964,25.446,4.934,25.865,4.93z M7.025,4.975c0.264,0,0.532,0,0.799,0.006
	C7.941,4.985,8.059,4.99,8.177,4.996c0.01,0.385,0.025,0.769,0.039,1.154c0.016,0.405,0.014,0.812,0.018,1.22
	c0.004,0.333,0.033,0.666,0.045,0.998C8.279,8.386,8.28,8.405,8.281,8.424c-0.48-0.005-0.96-0.012-1.438-0.004
	C6.196,8.431,5.55,8.41,4.903,8.396c-0.001-0.108-0.01-0.217-0.01-0.326c0.002-0.378,0.002-0.756-0.002-1.133
	C4.884,6.288,4.879,5.639,4.87,4.99c0.585-0.007,1.17-0.015,1.757-0.015C6.758,4.977,6.892,4.975,7.025,4.975z M8.081,26.955
	c-0.27-0.006-0.542-0.008-0.814-0.014c-0.378-0.01-0.754-0.033-1.131-0.045c-0.326-0.009-0.651-0.01-0.976-0.013
	c-0.011-0.376-0.008-0.754-0.011-1.126c-0.009-0.561-0.003-1.123-0.001-1.684c0.475-0.002,0.95-0.004,1.426-0.007
	c0.249-0.002,0.495-0.006,0.742-0.008c0.19-0.002,0.384-0.008,0.572,0.016c-0.07-0.01-0.143-0.02-0.213-0.029
	c0.26,0.037,0.521,0.053,0.783,0.059c-0.001,0.95,0,1.9,0.03,2.85c-0.036,0.001-0.073-0.002-0.109-0.001
	C8.276,26.955,8.178,26.959,8.081,26.955z M20.623,25.594c-0.716-0.008-1.433-0.025-2.147-0.043c-0.75-0.02-1.497-0.073-2.247-0.094
	c-0.363-0.01-0.724-0.014-1.086-0.014c-0.404,0-0.807,0.005-1.212,0.012c-1.293,0.024-2.587,0.014-3.88,0.064
	c0.013-0.606,0.055-1.212,0.064-1.82c0.002-0.166-0.062-0.313-0.15-0.444c-0.014-0.435-0.378-0.803-0.819-0.799
	c-0.292,0.002-0.581-0.002-0.873-0.006c-0.074,0-0.149,0-0.221,0c-0.161,0.002-0.321,0.002-0.484-0.008
	c-0.249-0.014-0.498-0.02-0.747-0.03c-0.065-0.621-0.067-1.246-0.085-1.87c-0.01-0.354-0.033-0.709-0.033-1.063
	c-0.002-0.362,0.008-0.722,0.002-1.083C6.692,17.639,6.7,16.88,6.694,16.12c-0.002-0.372-0.01-0.742-0.012-1.114
	c-0.004-0.35,0.049-0.701,0.059-1.051c0.01-0.317,0.002-0.634,0.014-0.951c0.012-0.341,0.033-0.679,0.057-1.018
	c0.044-0.665,0.071-1.33,0.092-1.995c0.331,0.007,0.662,0.023,0.993,0.029c0.18,0.004,0.36,0.004,0.538,0.004
	c0.151,0,0.301,0,0.452,0C8.963,10.024,9.032,10,9.102,9.98c0.004,0,0.008,0.002,0.013,0.002c0.403,0,0.836-0.364,0.797-0.797
	C9.886,8.913,9.888,8.639,9.88,8.367C9.87,8.036,9.86,7.702,9.862,7.369c0.001-0.185-0.001-0.37-0.001-0.556
	c0.59,0.006,1.181,0.008,1.772,0.006c0.869-0.004,1.74-0.008,2.609,0.016c0.752,0.021,1.501,0.053,2.253,0.065
	c0.411,0.008,0.824,0.006,1.237,0.004c0.352-0.002,0.707-0.002,1.061,0c0.595,0.006,1.184,0,1.779-0.027
	c0.319-0.016,0.64-0.027,0.961-0.039c0.294-0.013,0.591-0.03,0.885-0.015c0.015,0.57,0.02,1.14,0.021,1.71
	c-0.132,0.146-0.219,0.334-0.219,0.543c0,0.443,0.372,0.828,0.82,0.82c0.768-0.013,1.538-0.039,2.308-0.041
	c0.004,0.847,0.017,1.692,0.021,2.537c0.004,0.407,0.006,0.814,0.004,1.219c-0.002,0.396-0.031,0.789-0.045,1.182
	c-0.027,0.713-0.035,1.425-0.033,2.138c0.002,0.395,0.002,0.791,0.012,1.184c0.012,0.384,0.045,0.767,0.061,1.149
	c0.048,1.117,0.118,2.232,0.132,3.349c-0.728-0.024-1.454-0.068-2.182-0.108c-0.012,0-0.024-0.001-0.036-0.001
	c-0.453,0-0.825,0.424-0.825,0.862c0,0.008,0.004,0.013,0.004,0.021c-0.168,0.153-0.278,0.367-0.276,0.608
	c0.002,0.528,0.013,1.055,0.024,1.583C21.68,25.599,21.152,25.599,20.623,25.594z M27.145,27.037
	c-0.027,0.005-0.053,0.009-0.08,0.013c-0.2,0.018-0.402,0.016-0.603,0.016c-0.296,0.002-0.593,0.006-0.889,0.008
	c-0.584,0.007-1.169,0.007-1.753,0.01c-0.015-0.372-0.016-0.744-0.007-1.115c0.014-0.575,0.022-1.15,0.027-1.726
	c0.577,0.021,1.153,0.042,1.73,0.044c0.331,0,0.664,0.004,0.996-0.01c0.229-0.01,0.457-0.051,0.684-0.095
	c0.001,0.476,0.014,0.951,0.053,1.426c0.029,0.362,0.069,0.722,0.098,1.084c0.008,0.108,0.015,0.218,0.021,0.327
	c-0.013,0-0.026-0.005-0.04-0.005C27.307,27.015,27.228,27.024,27.145,27.037z"/>
</svg>