<?xml version="1.0" encoding="utf-8"?>
<!-- Uploaded to: SVG Repo, www.svgrepo.com, Generator: SVG Repo Mixer Tools -->
<svg fill="#000000" version="1.1" id="Layer_1" xmlns="http://www.w3.org/2000/svg" xmlns:xlink="http://www.w3.org/1999/xlink" 
	 width="800px" height="800px" viewBox="0 0 256 253" enable-background="new 0 0 256 253" xml:space="preserve">
<path d="M2,69c0,13.678,9.625,25.302,22,29.576V233H2v18h252v-18h-22V98.554c12.89-3.945,21.699-15.396,22-29.554v-8H2V69z
	 M65.29,68.346c0,6.477,6.755,31.47,31.727,31.47c21.689,0,31.202-19.615,31.202-31.47c0,11.052,7.41,31.447,31.464,31.447
	c21.733,0,31.363-20.999,31.363-31.447c0,14.425,9.726,26.416,22.954,30.154V233H42V98.594C55.402,94.966,65.29,82.895,65.29,68.346
	z M254,54H2l32-32V2h189v20h-0.168L254,54z M167.877,202.446c0.13,1.168,0,2.551-0.303,3.849l-11.027-10.162l-9.946,10.854
	l11.157,10.119c-1.297,0.432-2.551,0.735-3.849,0.735c-3.849,0.13-7.135-1.038-9.946-3.589c-2.811-2.681-4.324-5.795-4.454-9.643
	c0-1.341,0.13-2.854,0.432-4.151l-2.681-2.551l-16.043-14.66L94.06,213.17c-1.643,2.205-4.195,3.719-7.135,3.719
	c-4.757,0-8.605-3.849-8.605-8.605c0-2.551,0.995-4.887,2.941-6.53l28.195-29.233L92.417,156.91
	c-1.341,0.605-2.854,0.908-4.151,0.908c-3.849,0.13-7.135-1.038-9.946-3.589s-4.324-5.665-4.454-9.514
	c-0.13-1.168,0-2.551,0.303-3.849l11.157,10.119l9.86-10.811l-11.157-10.119c1.168-0.432,2.551-0.735,3.849-0.735
	c3.849-0.13,7.135,1.038,9.946,3.589c2.811,2.508,4.324,5.795,4.454,9.643c0.13,1.297,0,2.551-0.303,3.849l17.557,16.087
	l12.843-13.881l-19.2-16.908l17.427-19.849l49.341,43.417l-17.427,19.849l-19.719-17.384l-12.411,14.66l19.287,17.643
	c1.297-0.432,2.551-0.735,3.849-0.735c3.849-0.13,7.135,1.038,9.946,3.589C166.277,195.397,167.79,198.511,167.877,202.446z"/>
</svg>