<?xml version="1.0" encoding="iso-8859-1"?>
<!-- Uploaded to: SVG Repo, www.svgrepo.com, Generator: SVG Repo Mixer Tools -->
<!DOCTYPE svg PUBLIC "-//W3C//DTD SVG 1.1//EN" "http://www.w3.org/Graphics/SVG/1.1/DTD/svg11.dtd">
<svg fill="#000000" height="800px" width="800px" version="1.1" id="Capa_1" xmlns="http://www.w3.org/2000/svg" xmlns:xlink="http://www.w3.org/1999/xlink" 
	 viewBox="0 0 348.679 348.679" xml:space="preserve">
<path d="M272.24,192.948l-39.97-0.006v-37.205l39.967-0.006c42.15,0,76.441-34.294,76.441-76.447
	c0-42.151-34.291-76.444-76.441-76.444c-42.159,0-76.459,34.293-76.459,76.444c0,7.744,0.031,26.018,0.058,40.059h-42.977
	c0.021-14.02,0.039-32.271,0.039-40.059c0-42.151-34.299-76.444-76.458-76.444C34.292,2.839,0,37.132,0,79.284
	c0,42.153,34.292,76.447,76.44,76.447l39.998,0.006v37.222l-39.998-0.011C34.292,192.948,0,227.242,0,269.394
	c0,42.152,34.292,76.445,76.44,76.445c42.159,0,76.458-34.293,76.458-76.445c0-7.789-0.019-26.04-0.039-40.058h42.977
	c-0.026,14.041-0.058,32.314-0.058,40.058c0,42.152,34.3,76.445,76.459,76.445c42.15,0,76.441-34.293,76.441-76.445
	C348.679,227.242,314.389,192.948,272.24,192.948z M272.237,39.238c22.079,0,40.041,17.965,40.041,40.046
	c0,22.082-17.964,40.048-40.044,40.048l-40.002,0.008c-0.024-14.033-0.056-32.321-0.056-40.056
	C232.177,57.203,250.146,39.238,272.237,39.238z M272.237,309.441c-22.091,0-40.061-17.965-40.061-40.047
	c0-7.733,0.031-26.021,0.056-40.055l40.005,0.008c22.079,0,40.041,17.965,40.041,40.047
	C312.278,291.476,294.316,309.441,272.237,309.441z M195.872,155.742v37.195h-43.035v-37.195H195.872z M76.438,229.347l40.022,0.009
	l0.008,6.669c0.016,12.673,0.031,26.775,0.031,33.369c0,22.082-17.97,40.047-40.06,40.047c-22.079,0-40.042-17.965-40.042-40.047
	C36.398,247.312,54.361,229.347,76.438,229.347z M76.44,39.238c22.09,0,40.06,17.965,40.06,40.046
	c0,6.594-0.016,20.699-0.031,33.377l-0.008,6.679l-40.021-0.008c-22.079,0-40.042-17.966-40.042-40.048
	C36.398,57.203,54.361,39.238,76.44,39.238z"/>
</svg>